<?xml version="1.0" encoding="UTF-8" standalone="no"?>
<!DOCTYPE svg PUBLIC "-//W3C//DTD SVG 1.1//EN" "http://www.w3.org/Graphics/SVG/1.1/DTD/svg11.dtd">
<svg width="100%" height="100%" viewBox="0 0 16 16" version="1.1" xmlns="http://www.w3.org/2000/svg" xmlns:xlink="http://www.w3.org/1999/xlink" xml:space="preserve" xmlns:serif="http://www.serif.com/" style="fill-rule:evenodd;clip-rule:evenodd;stroke-linejoin:round;stroke-miterlimit:1.41421;">
    <g transform="matrix(1.00036,0,0,1.00135,-3.2955e-06,5.16358e-06)">
        <g id="BG">
            <rect x="0.009" y="-0.004" width="15.996" height="15.988" style="fill:rgb(118,88,139);"/>
        </g>
    </g>
    <g transform="matrix(1,0,0,1,0,-1036.36)">
        <path d="M11.666,1043.52L11.666,1042.03C11.666,1040.01 10.021,1038.36 8,1038.36C5.98,1038.36 4.334,1040.01 4.334,1042.03L4.334,1043.52C4.045,1043.58 3.827,1043.84 3.827,1044.14L3.827,1049.73C3.827,1050.08 4.113,1050.36 4.465,1050.36L11.535,1050.36C11.887,1050.36 12.173,1050.08 12.173,1049.73L12.173,1044.14C12.173,1043.84 11.955,1043.58 11.666,1043.52M8.856,1048.28C8.869,1048.35 8.822,1048.4 8.752,1048.4L7.264,1048.4C7.194,1048.4 7.147,1048.35 7.16,1048.28L7.397,1047.02C7.218,1046.86 7.105,1046.62 7.105,1046.36C7.105,1045.87 7.506,1045.47 8,1045.47C8.494,1045.47 8.895,1045.87 8.895,1046.36C8.895,1046.62 8.788,1046.85 8.617,1047.01L8.856,1048.28ZM10.39,1043.51L5.608,1043.51L5.608,1042.03C5.608,1040.71 6.681,1039.64 7.999,1039.64C9.317,1039.64 10.39,1040.71 10.39,1042.03L10.39,1043.51Z" style="fill:white;fill-rule:nonzero;"/>
    </g>
</svg>
